# xmcd
#
# Track frame offsets:
#	150
#	14096
#	25179
#	69734
#	83381
#	103785
#	117655
#	137307
#	159062
#
# Disc length: 2320 seconds
#
# Revision: 0
# Processed by: cddbd v1.4PL0 Copyright (c) Steve Scherf et al.
#
# Submitted via: MusicManager v6.1.1.0
#
DISCID=69090e09
DTITLE=Dave Cousins - Two weeks last summer
DYEAR=1900
DGENRE=country
TTITLE0=Two weeks last summer
TTITLE1=October to May  
TTITLE2=Blue angel
TTITLE3=That's the way it ends
TTITLE4=The actor
TTITLE5=When you were a child
TTITLE6=Ways and means
TTITLE7=We 'll meet again sometime
TTITLE8=Going home
EXTD=
EXTT0=
EXTT1=
EXTT2=
EXTT3=
EXTT4=
EXTT5=
EXTT6=
EXTT7=
EXTT8=
PLAYORDER=
